<mxfile host="app.diagrams.net" modified="2023-11-06T04:00:50.962Z" agent="Mozilla/5.0 (Macintosh; Intel Mac OS X 10_15_7) AppleWebKit/537.36 (KHTML, like Gecko) Chrome/118.0.0.0 Safari/537.36" etag="_9yGEcLdsOs3lVHA8_Ch" version="22.0.8" type="github">
  <diagram name="ページ1" id="tyaMPbAU48UmF2bHCIHt">
    <mxGraphModel dx="1004" dy="649" grid="1" gridSize="10" guides="1" tooltips="1" connect="1" arrows="1" fold="1" page="1" pageScale="1" pageWidth="827" pageHeight="1169" math="0" shadow="0">
      <root>
        <mxCell id="0" />
        <mxCell id="1" parent="0" />
        <mxCell id="7wLoFLkzSzKWh_BDHrXM-1" value="" style="ellipse;whiteSpace=wrap;html=1;aspect=fixed;" parent="1" vertex="1">
          <mxGeometry x="280" y="331" width="80" height="80" as="geometry" />
        </mxCell>
        <mxCell id="7wLoFLkzSzKWh_BDHrXM-3" value="" style="ellipse;whiteSpace=wrap;html=1;aspect=fixed;" parent="1" vertex="1">
          <mxGeometry x="440" y="331" width="80" height="80" as="geometry" />
        </mxCell>
        <mxCell id="7wLoFLkzSzKWh_BDHrXM-4" value="" style="ellipse;whiteSpace=wrap;html=1;aspect=fixed;" parent="1" vertex="1">
          <mxGeometry x="160" y="331" width="80" height="80" as="geometry" />
        </mxCell>
        <mxCell id="7wLoFLkzSzKWh_BDHrXM-5" value="" style="ellipse;whiteSpace=wrap;html=1;aspect=fixed;" parent="1" vertex="1">
          <mxGeometry x="560" y="331" width="80" height="80" as="geometry" />
        </mxCell>
        <mxCell id="7wLoFLkzSzKWh_BDHrXM-10" value="" style="shape=link;html=1;rounded=0;entryX=1;entryY=0.5;entryDx=0;entryDy=0;" parent="1" edge="1">
          <mxGeometry width="100" relative="1" as="geometry">
            <mxPoint x="160" y="370" as="sourcePoint" />
            <mxPoint x="240" y="370" as="targetPoint" />
          </mxGeometry>
        </mxCell>
        <mxCell id="7wLoFLkzSzKWh_BDHrXM-11" value="" style="shape=link;html=1;rounded=0;entryX=1;entryY=0.5;entryDx=0;entryDy=0;" parent="1" edge="1">
          <mxGeometry width="100" relative="1" as="geometry">
            <mxPoint x="440" y="369.5" as="sourcePoint" />
            <mxPoint x="520" y="369.5" as="targetPoint" />
          </mxGeometry>
        </mxCell>
        <mxCell id="7wLoFLkzSzKWh_BDHrXM-12" value="" style="shape=link;html=1;rounded=0;entryX=0.5;entryY=1;entryDx=0;entryDy=0;" parent="1" target="7wLoFLkzSzKWh_BDHrXM-1" edge="1">
          <mxGeometry width="100" relative="1" as="geometry">
            <mxPoint x="320" y="331" as="sourcePoint" />
            <mxPoint x="319.5" y="401.5" as="targetPoint" />
          </mxGeometry>
        </mxCell>
        <mxCell id="7wLoFLkzSzKWh_BDHrXM-13" value="" style="shape=link;html=1;rounded=0;entryX=0.5;entryY=1;entryDx=0;entryDy=0;" parent="1" edge="1">
          <mxGeometry width="100" relative="1" as="geometry">
            <mxPoint x="599.79" y="331" as="sourcePoint" />
            <mxPoint x="599.79" y="411" as="targetPoint" />
          </mxGeometry>
        </mxCell>
        <mxCell id="7wLoFLkzSzKWh_BDHrXM-15" value="" style="endArrow=classic;html=1;rounded=0;" parent="1" target="7wLoFLkzSzKWh_BDHrXM-19" edge="1">
          <mxGeometry width="50" height="50" relative="1" as="geometry">
            <mxPoint x="320" y="330" as="sourcePoint" />
            <mxPoint x="480" y="170" as="targetPoint" />
          </mxGeometry>
        </mxCell>
        <mxCell id="7wLoFLkzSzKWh_BDHrXM-17" value="" style="ellipse;whiteSpace=wrap;html=1;aspect=fixed;" parent="1" vertex="1">
          <mxGeometry x="220" y="170" width="80" height="80" as="geometry" />
        </mxCell>
        <mxCell id="7wLoFLkzSzKWh_BDHrXM-18" value="" style="shape=link;html=1;rounded=0;entryX=1;entryY=0.5;entryDx=0;entryDy=0;" parent="1" edge="1">
          <mxGeometry width="100" relative="1" as="geometry">
            <mxPoint x="220" y="209.37" as="sourcePoint" />
            <mxPoint x="300" y="209.37" as="targetPoint" />
          </mxGeometry>
        </mxCell>
        <mxCell id="7wLoFLkzSzKWh_BDHrXM-19" value="" style="ellipse;whiteSpace=wrap;html=1;aspect=fixed;" parent="1" vertex="1">
          <mxGeometry x="500" y="170" width="80" height="80" as="geometry" />
        </mxCell>
        <mxCell id="7wLoFLkzSzKWh_BDHrXM-20" value="" style="shape=link;html=1;rounded=0;entryX=0.5;entryY=1;entryDx=0;entryDy=0;" parent="1" target="7wLoFLkzSzKWh_BDHrXM-19" edge="1">
          <mxGeometry width="100" relative="1" as="geometry">
            <mxPoint x="540" y="170" as="sourcePoint" />
            <mxPoint x="539.5" y="240.5" as="targetPoint" />
          </mxGeometry>
        </mxCell>
        <mxCell id="7wLoFLkzSzKWh_BDHrXM-21" value="" style="endArrow=classic;html=1;rounded=0;exitX=0.5;exitY=0;exitDx=0;exitDy=0;" parent="1" target="7wLoFLkzSzKWh_BDHrXM-17" edge="1">
          <mxGeometry width="50" height="50" relative="1" as="geometry">
            <mxPoint x="480" y="330" as="sourcePoint" />
            <mxPoint x="520" y="167" as="targetPoint" />
          </mxGeometry>
        </mxCell>
        <mxCell id="7wLoFLkzSzKWh_BDHrXM-22" value="" style="endArrow=classic;html=1;rounded=0;exitX=0.5;exitY=0;exitDx=0;exitDy=0;entryX=0;entryY=1;entryDx=0;entryDy=0;" parent="1" target="7wLoFLkzSzKWh_BDHrXM-17" edge="1">
          <mxGeometry width="50" height="50" relative="1" as="geometry">
            <mxPoint x="200" y="330" as="sourcePoint" />
            <mxPoint x="260" y="170" as="targetPoint" />
          </mxGeometry>
        </mxCell>
        <mxCell id="7wLoFLkzSzKWh_BDHrXM-23" value="" style="endArrow=classic;html=1;rounded=0;entryX=1;entryY=1;entryDx=0;entryDy=0;" parent="1" target="7wLoFLkzSzKWh_BDHrXM-19" edge="1">
          <mxGeometry width="50" height="50" relative="1" as="geometry">
            <mxPoint x="600" y="330" as="sourcePoint" />
            <mxPoint x="310" y="177" as="targetPoint" />
          </mxGeometry>
        </mxCell>
        <mxCell id="7wLoFLkzSzKWh_BDHrXM-24" value="" style="endArrow=classic;html=1;rounded=0;exitX=0.5;exitY=0;exitDx=0;exitDy=0;entryX=0;entryY=1;entryDx=0;entryDy=0;" parent="1" source="7wLoFLkzSzKWh_BDHrXM-17" target="7wLoFLkzSzKWh_BDHrXM-25" edge="1">
          <mxGeometry width="50" height="50" relative="1" as="geometry">
            <mxPoint x="260" y="150" as="sourcePoint" />
            <mxPoint x="340" y="10" as="targetPoint" />
          </mxGeometry>
        </mxCell>
        <mxCell id="7wLoFLkzSzKWh_BDHrXM-25" value="output" style="ellipse;whiteSpace=wrap;html=1;aspect=fixed;" parent="1" vertex="1">
          <mxGeometry x="360" y="10" width="80" height="80" as="geometry" />
        </mxCell>
        <mxCell id="7wLoFLkzSzKWh_BDHrXM-26" value="" style="endArrow=classic;html=1;rounded=0;exitX=0.5;exitY=0;exitDx=0;exitDy=0;entryX=1;entryY=1;entryDx=0;entryDy=0;" parent="1" source="7wLoFLkzSzKWh_BDHrXM-19" target="7wLoFLkzSzKWh_BDHrXM-25" edge="1">
          <mxGeometry width="50" height="50" relative="1" as="geometry">
            <mxPoint x="320" y="192" as="sourcePoint" />
            <mxPoint x="432" y="100" as="targetPoint" />
          </mxGeometry>
        </mxCell>
        <mxCell id="7wLoFLkzSzKWh_BDHrXM-27" value="eye rivalry" style="text;strokeColor=none;align=center;fillColor=none;html=1;verticalAlign=middle;whiteSpace=wrap;rounded=0;" parent="1" vertex="1">
          <mxGeometry x="50" y="355" width="60" height="30" as="geometry" />
        </mxCell>
        <mxCell id="7wLoFLkzSzKWh_BDHrXM-28" value="pattern rivalry" style="text;strokeColor=none;align=center;fillColor=none;html=1;verticalAlign=middle;whiteSpace=wrap;rounded=0;" parent="1" vertex="1">
          <mxGeometry x="35" y="195" width="90" height="30" as="geometry" />
        </mxCell>
        <mxCell id="7wLoFLkzSzKWh_BDHrXM-29" value="counteraction" style="text;strokeColor=none;align=center;fillColor=none;html=1;verticalAlign=middle;whiteSpace=wrap;rounded=0;" parent="1" vertex="1">
          <mxGeometry x="35" y="35" width="90" height="30" as="geometry" />
        </mxCell>
        <mxCell id="7wLoFLkzSzKWh_BDHrXM-30" value="monocular cell" style="text;strokeColor=none;align=center;fillColor=none;html=1;verticalAlign=middle;whiteSpace=wrap;rounded=0;" parent="1" vertex="1">
          <mxGeometry x="676" y="355" width="89" height="30" as="geometry" />
        </mxCell>
        <mxCell id="7wLoFLkzSzKWh_BDHrXM-31" value="bonocular cell" style="text;strokeColor=none;align=center;fillColor=none;html=1;verticalAlign=middle;whiteSpace=wrap;rounded=0;" parent="1" vertex="1">
          <mxGeometry x="676" y="195" width="90" height="30" as="geometry" />
        </mxCell>
        <mxCell id="7wLoFLkzSzKWh_BDHrXM-32" value="feedback" style="text;strokeColor=none;align=center;fillColor=none;html=1;verticalAlign=middle;whiteSpace=wrap;rounded=0;" parent="1" vertex="1">
          <mxGeometry x="676" y="35" width="90" height="30" as="geometry" />
        </mxCell>
        <mxCell id="7wLoFLkzSzKWh_BDHrXM-44" style="edgeStyle=orthogonalEdgeStyle;rounded=0;orthogonalLoop=1;jettySize=auto;html=1;exitX=1;exitY=0.5;exitDx=0;exitDy=0;entryX=0;entryY=0.5;entryDx=0;entryDy=0;" parent="1" source="7wLoFLkzSzKWh_BDHrXM-38" target="7wLoFLkzSzKWh_BDHrXM-39" edge="1">
          <mxGeometry relative="1" as="geometry" />
        </mxCell>
        <mxCell id="7wLoFLkzSzKWh_BDHrXM-38" value="local&lt;br&gt;disparity detection" style="text;strokeColor=default;align=center;fillColor=default;html=1;verticalAlign=middle;whiteSpace=wrap;rounded=0;strokeWidth=2;" parent="1" vertex="1">
          <mxGeometry x="340" y="950" width="100" height="60" as="geometry" />
        </mxCell>
        <mxCell id="7wLoFLkzSzKWh_BDHrXM-45" style="edgeStyle=orthogonalEdgeStyle;rounded=0;orthogonalLoop=1;jettySize=auto;html=1;exitX=1;exitY=0.5;exitDx=0;exitDy=0;entryX=0;entryY=0.5;entryDx=0;entryDy=0;" parent="1" source="7wLoFLkzSzKWh_BDHrXM-39" target="7wLoFLkzSzKWh_BDHrXM-40" edge="1">
          <mxGeometry relative="1" as="geometry" />
        </mxCell>
        <mxCell id="7wLoFLkzSzKWh_BDHrXM-39" value="global&lt;br&gt;disparity mapping" style="text;strokeColor=default;align=center;fillColor=default;html=1;verticalAlign=middle;whiteSpace=wrap;rounded=0;strokeWidth=2;" parent="1" vertex="1">
          <mxGeometry x="490" y="950" width="100" height="60" as="geometry" />
        </mxCell>
        <mxCell id="7wLoFLkzSzKWh_BDHrXM-40" value="stereoscopic depth output" style="text;strokeColor=default;align=center;fillColor=default;html=1;verticalAlign=middle;whiteSpace=wrap;rounded=0;strokeWidth=2;" parent="1" vertex="1">
          <mxGeometry x="640" y="950" width="100" height="60" as="geometry" />
        </mxCell>
        <mxCell id="7wLoFLkzSzKWh_BDHrXM-46" style="edgeStyle=orthogonalEdgeStyle;rounded=0;orthogonalLoop=1;jettySize=auto;html=1;exitX=1;exitY=0.5;exitDx=0;exitDy=0;entryX=0;entryY=0.5;entryDx=0;entryDy=0;" parent="1" source="7wLoFLkzSzKWh_BDHrXM-41" target="7wLoFLkzSzKWh_BDHrXM-38" edge="1">
          <mxGeometry relative="1" as="geometry" />
        </mxCell>
        <mxCell id="7wLoFLkzSzKWh_BDHrXM-41" value="monoclar process" style="text;strokeColor=default;align=center;fillColor=default;html=1;verticalAlign=middle;whiteSpace=wrap;rounded=0;strokeWidth=2;" parent="1" vertex="1">
          <mxGeometry x="190" y="950" width="100" height="60" as="geometry" />
        </mxCell>
        <mxCell id="7wLoFLkzSzKWh_BDHrXM-43" value="" style="endArrow=oval;html=1;edgeStyle=orthogonalEdgeStyle;curved=1;startArrow=oval;startFill=1;endFill=1;" parent="1" edge="1">
          <mxGeometry width="50" height="50" relative="1" as="geometry">
            <mxPoint x="310" y="210" as="sourcePoint" />
            <mxPoint x="490" y="210" as="targetPoint" />
          </mxGeometry>
        </mxCell>
        <mxCell id="7wLoFLkzSzKWh_BDHrXM-47" value="stereo-rival polarity" style="text;strokeColor=none;align=center;fillColor=none;html=1;verticalAlign=middle;whiteSpace=wrap;rounded=0;" parent="1" vertex="1">
          <mxGeometry x="345" y="1020" width="90" height="30" as="geometry" />
        </mxCell>
        <mxCell id="7wLoFLkzSzKWh_BDHrXM-48" value="stereopsis-rivalry antagonism" style="text;strokeColor=none;align=center;fillColor=none;html=1;verticalAlign=middle;whiteSpace=wrap;rounded=0;" parent="1" vertex="1">
          <mxGeometry x="487.5" y="1020" width="105" height="30" as="geometry" />
        </mxCell>
        <mxCell id="ZULY3zypmIYRIrZbk3_r-13" value="local&lt;br&gt;disparity detection" style="text;strokeColor=default;align=center;fillColor=default;html=1;verticalAlign=middle;whiteSpace=wrap;rounded=0;strokeWidth=2;" vertex="1" parent="1">
          <mxGeometry x="313.5" y="580" width="100" height="60" as="geometry" />
        </mxCell>
        <mxCell id="ZULY3zypmIYRIrZbk3_r-14" value="local&lt;br&gt;disparity detection" style="text;strokeColor=default;align=center;fillColor=default;html=1;verticalAlign=middle;whiteSpace=wrap;rounded=0;strokeWidth=2;" vertex="1" parent="1">
          <mxGeometry x="314" y="681" width="100" height="60" as="geometry" />
        </mxCell>
        <mxCell id="ZULY3zypmIYRIrZbk3_r-15" value="global&lt;br&gt;disparity mapping" style="text;strokeColor=default;align=center;fillColor=default;html=1;verticalAlign=middle;whiteSpace=wrap;rounded=0;strokeWidth=2;" vertex="1" parent="1">
          <mxGeometry x="470" y="630.5" width="100" height="60" as="geometry" />
        </mxCell>
        <mxCell id="ZULY3zypmIYRIrZbk3_r-16" value="" style="endArrow=classic;html=1;rounded=0;entryX=0;entryY=0.5;entryDx=0;entryDy=0;" edge="1" parent="1" target="ZULY3zypmIYRIrZbk3_r-14">
          <mxGeometry width="50" height="50" relative="1" as="geometry">
            <mxPoint x="241" y="741" as="sourcePoint" />
            <mxPoint x="291" y="691" as="targetPoint" />
          </mxGeometry>
        </mxCell>
        <mxCell id="ZULY3zypmIYRIrZbk3_r-19" value="" style="endArrow=classic;html=1;rounded=0;entryX=0;entryY=0.5;entryDx=0;entryDy=0;exitX=1;exitY=0.5;exitDx=0;exitDy=0;" edge="1" parent="1" target="ZULY3zypmIYRIrZbk3_r-14">
          <mxGeometry width="50" height="50" relative="1" as="geometry">
            <mxPoint x="241" y="579.4999999999998" as="sourcePoint" />
            <mxPoint x="324" y="721" as="targetPoint" />
          </mxGeometry>
        </mxCell>
        <mxCell id="ZULY3zypmIYRIrZbk3_r-20" value="" style="endArrow=classic;html=1;rounded=0;entryX=0;entryY=0.5;entryDx=0;entryDy=0;exitX=1;exitY=0.5;exitDx=0;exitDy=0;" edge="1" parent="1" target="ZULY3zypmIYRIrZbk3_r-13">
          <mxGeometry width="50" height="50" relative="1" as="geometry">
            <mxPoint x="241" y="660.5" as="sourcePoint" />
            <mxPoint x="324" y="721" as="targetPoint" />
          </mxGeometry>
        </mxCell>
        <mxCell id="ZULY3zypmIYRIrZbk3_r-21" value="" style="endArrow=classic;html=1;rounded=0;entryX=0;entryY=0.5;entryDx=0;entryDy=0;exitX=1;exitY=0.5;exitDx=0;exitDy=0;" edge="1" parent="1" target="ZULY3zypmIYRIrZbk3_r-13">
          <mxGeometry width="50" height="50" relative="1" as="geometry">
            <mxPoint x="241" y="579.4999999999998" as="sourcePoint" />
            <mxPoint x="324" y="620" as="targetPoint" />
          </mxGeometry>
        </mxCell>
        <mxCell id="ZULY3zypmIYRIrZbk3_r-22" value="stereo-rival polarity" style="text;strokeColor=none;align=center;fillColor=none;html=1;verticalAlign=middle;whiteSpace=wrap;rounded=0;" vertex="1" parent="1">
          <mxGeometry x="319" y="527" width="90" height="30" as="geometry" />
        </mxCell>
        <mxCell id="ZULY3zypmIYRIrZbk3_r-23" value="stereopsis-rivalry antagonism" style="text;strokeColor=none;align=center;fillColor=none;html=1;verticalAlign=middle;whiteSpace=wrap;rounded=0;" vertex="1" parent="1">
          <mxGeometry x="467.5" y="527" width="105" height="30" as="geometry" />
        </mxCell>
        <mxCell id="ZULY3zypmIYRIrZbk3_r-25" value="" style="endArrow=classic;html=1;rounded=0;exitX=1;exitY=0.5;exitDx=0;exitDy=0;entryX=0;entryY=0.5;entryDx=0;entryDy=0;" edge="1" parent="1" source="ZULY3zypmIYRIrZbk3_r-13" target="ZULY3zypmIYRIrZbk3_r-15">
          <mxGeometry width="50" height="50" relative="1" as="geometry">
            <mxPoint x="450" y="607" as="sourcePoint" />
            <mxPoint x="500" y="557" as="targetPoint" />
            <Array as="points">
              <mxPoint x="440" y="610" />
              <mxPoint x="440" y="661" />
            </Array>
          </mxGeometry>
        </mxCell>
        <mxCell id="ZULY3zypmIYRIrZbk3_r-26" value="" style="endArrow=classic;html=1;rounded=0;exitX=1;exitY=0.5;exitDx=0;exitDy=0;entryX=0;entryY=0.5;entryDx=0;entryDy=0;" edge="1" parent="1" source="ZULY3zypmIYRIrZbk3_r-14" target="ZULY3zypmIYRIrZbk3_r-15">
          <mxGeometry width="50" height="50" relative="1" as="geometry">
            <mxPoint x="424" y="620" as="sourcePoint" />
            <mxPoint x="470" y="660" as="targetPoint" />
            <Array as="points">
              <mxPoint x="440" y="711" />
              <mxPoint x="440" y="660" />
            </Array>
          </mxGeometry>
        </mxCell>
        <mxCell id="ZULY3zypmIYRIrZbk3_r-27" value="monocular process" style="text;strokeColor=none;align=center;fillColor=none;html=1;verticalAlign=middle;whiteSpace=wrap;rounded=0;" vertex="1" parent="1">
          <mxGeometry x="155" y="527" width="90" height="30" as="geometry" />
        </mxCell>
      </root>
    </mxGraphModel>
  </diagram>
</mxfile>
